<svg id="Camada_1" data-name="Camada 1" xmlns="http://www.w3.org/2000/svg" xmlns:xlink="http://www.w3.org/1999/xlink" viewBox="0 0 504.36 504.36"><defs><style>.cls-1,.cls-11{fill:#fff;}.cls-2{fill:url(#Gradiente_sem_nome_66);}.cls-3{fill:url(#Gradiente_sem_nome_66-2);}.cls-4{fill:url(#Gradiente_sem_nome_66-3);}.cls-5{fill:url(#Gradiente_sem_nome_66-4);}.cls-6{fill:url(#Gradiente_sem_nome_66-5);}.cls-7{fill:url(#Gradiente_sem_nome_66-6);}.cls-8{fill:url(#Gradiente_sem_nome_66-7);}.cls-9{fill:url(#Gradiente_sem_nome_66-8);}.cls-10{fill:url(#Gradiente_sem_nome_66-9);}.cls-11{font-size:50.51px;font-family:BradleyHandITC, Bradley Hand ITC;}</style><linearGradient id="Gradiente_sem_nome_66" x1="625.05" y1="322.03" x2="641.41" y2="322.03" gradientUnits="userSpaceOnUse"><stop offset="0" stop-color="#ffab17"/><stop offset="0.31" stop-color="#fea415"/><stop offset="0.77" stop-color="#fb8f0f"/><stop offset="1" stop-color="#f9820b"/></linearGradient><linearGradient id="Gradiente_sem_nome_66-2" x1="604.33" y1="272.64" x2="611.67" y2="272.64" xlink:href="#Gradiente_sem_nome_66"/><linearGradient id="Gradiente_sem_nome_66-3" x1="623.47" y1="350.95" x2="638.86" y2="350.95" xlink:href="#Gradiente_sem_nome_66"/><linearGradient id="Gradiente_sem_nome_66-4" x1="186.95" y1="209.8" x2="669.6" y2="209.8" xlink:href="#Gradiente_sem_nome_66"/><linearGradient id="Gradiente_sem_nome_66-5" x1="566.56" y1="334.94" x2="586.29" y2="334.94" xlink:href="#Gradiente_sem_nome_66"/><linearGradient id="Gradiente_sem_nome_66-6" x1="257.65" y1="334.95" x2="277.52" y2="334.95" xlink:href="#Gradiente_sem_nome_66"/><linearGradient id="Gradiente_sem_nome_66-7" x1="173.93" y1="427.13" x2="668.01" y2="427.13" xlink:href="#Gradiente_sem_nome_66"/><linearGradient id="Gradiente_sem_nome_66-8" x1="442.55" y1="334.95" x2="462.42" y2="334.95" xlink:href="#Gradiente_sem_nome_66"/><linearGradient id="Gradiente_sem_nome_66-9" x1="388.57" y1="324.86" x2="398.58" y2="324.86" xlink:href="#Gradiente_sem_nome_66"/></defs><title>logo empresa</title><path class="cls-1" d="M538.1,148.64A87.55,87.55,0,0,1,373.9,87.81l1.35.5a86.12,86.12,0,1,0,161.51,59.83Z" transform="translate(-165.24 -50.84)"/><rect class="cls-1" x="530.94" y="141.9" width="12.98" height="12.98" transform="translate(824.58 423.41) rotate(-159.67)"/><path class="cls-1" d="M546.69,144.14l-5,13.51-13.51-5,5-13.52Zm-5.86,11.67,4-10.82L534,141l-4,10.82Z" transform="translate(-165.24 -50.84)"/><rect class="cls-1" x="367.73" y="81.44" width="12.98" height="12.98" transform="translate(529.34 249.55) rotate(-159.67)"/><path class="cls-1" d="M383.48,83.67l-5,13.52-13.51-5,5-13.51Zm-5.85,11.68,4-10.83-10.83-4-4,10.82Z" transform="translate(-165.24 -50.84)"/><rect class="cls-1" x="435.25" y="71.35" width="2.2" height="266.91" transform="translate(-27.88 532.06) rotate(-76.81)"/><rect class="cls-1" x="426.38" y="194.83" width="19.94" height="19.94" transform="translate(649.2 452.95) rotate(-166.81)"/><path class="cls-1" d="M449.66,196.55l-5.05,21.56L423,213.06l5.06-21.57ZM443,215.46,447,198.19l-17.27-4.05-4.05,17.28Z" transform="translate(-165.24 -50.84)"/><circle class="cls-1" cx="305.85" cy="174.21" r="9.97" transform="translate(-211.14 136.53) rotate(-31.81)"/><path class="cls-1" d="M315.26,168.38a11,11,0,0,1,1.37,8.36,11.07,11.07,0,1,1-21.56-5.05h0a11.07,11.07,0,0,1,20.19-3.31Zm-16.95,10.51a8.88,8.88,0,1,0-1.09-6.7h0A8.85,8.85,0,0,0,298.31,178.89Z" transform="translate(-165.24 -50.84)"/><circle class="cls-1" cx="401.04" cy="184.42" r="9.97"/><path class="cls-1" d="M575.69,229.43a11.07,11.07,0,1,1-20.18,3.3h0a11.06,11.06,0,0,1,20.18-3.3Zm-16.94,10.5a8.87,8.87,0,1,0-1.1-6.69A8.87,8.87,0,0,0,558.75,239.93Z" transform="translate(-165.24 -50.84)"/><circle class="cls-1" cx="252.18" cy="252.18" r="252.18"/><path class="cls-2" d="M641,332.25q.28-2.88.43-6,.14-8-1.62-12.33a14.2,14.2,0,0,0-4.23-6.13,7.54,7.54,0,0,0-4.94-1.69,5.94,5.94,0,0,0-3.59,1.13,4.54,4.54,0,0,0-1.55,2.82,21.76,21.76,0,0,0-.42,4.51L626.6,313a3.81,3.81,0,0,1,4.09-.92,9.28,9.28,0,0,1,3.87,2.54,11.29,11.29,0,0,1,2.33,3.66c.46,1.27.37,2-.29,2.33a23,23,0,0,0-4.79,2.81,12.82,12.82,0,0,0-3.38,4.37,23.2,23.2,0,0,0,4.79,6.49,14.11,14.11,0,0,0,7,3.66Q640.69,335.14,641,332.25Z" transform="translate(-165.24 -50.84)"/><path class="cls-3" d="M610,277.78a44.5,44.5,0,0,0,1.69-12.12,34.6,34.6,0,0,0-1.27-8.87A98.16,98.16,0,0,0,607,270.67q-1.54,8.52-2.68,17.82a23.4,23.4,0,0,0,3.1-4.43A28.21,28.21,0,0,0,610,277.78Z" transform="translate(-165.24 -50.84)"/><path class="cls-4" d="M625.54,362.62a2.46,2.46,0,0,0,2.61,1.41,4.4,4.4,0,0,0,2.32-1.69,25.18,25.18,0,0,0,2.82-4.16,57.13,57.13,0,0,0,3-6.13,58.56,58.56,0,0,0,2.61-7.75,11.59,11.59,0,0,0-1.69-.42,10.18,10.18,0,0,1-1.69-.42,24.48,24.48,0,0,1-10.29-5.64,11.9,11.9,0,0,0-.21,1.34,5.26,5.26,0,0,1-.36,1.34,63.21,63.21,0,0,0-1.12,9.65,36.66,36.66,0,0,0,.42,7.61A13.88,13.88,0,0,0,625.54,362.62Z" transform="translate(-165.24 -50.84)"/><path class="cls-5" d="M202.84,187.53q10.93-5.4,20.84-.9a17.71,17.71,0,0,1,9.13,9.8,42.27,42.27,0,0,1,2.7,14.76,71.7,71.7,0,0,1-1.8,16.67,105.27,105.27,0,0,1-4.62,15.44,56.65,56.65,0,0,1-5.63,11.15c-2,2.85-3.53,4.05-4.73,3.6a8.53,8.53,0,0,1-4.17-1.91,7.24,7.24,0,0,1-1.69-2.37,3.93,3.93,0,0,1-.23-2.93,98.93,98.93,0,0,0,4.62-8.9,90.24,90.24,0,0,0,4.62-12.16,70.41,70.41,0,0,0,2.71-13.41,34.87,34.87,0,0,0-.91-12.61q-1.8-5.64-5.74-3.95t-8.45,9.47a119.61,119.61,0,0,0-9,20.95,181.09,181.09,0,0,0-7.21,30.3Q191.46,272,190,284.64t-2,24.9a217.54,217.54,0,0,0,.12,23.2,80.34,80.34,0,0,0,3.26,19.15q2.6,8.24,7.44,12.84t12.5,3.95A24.32,24.32,0,0,0,225.37,363a61.73,61.73,0,0,0,11.72-12.72A92.85,92.85,0,0,0,246.21,334q3.84-8.79,6.65-16.67t4.28-13.63q1.47-5.74,1.69-7.33c.3-1.49,1.05-2.32,2.25-2.47s2.22.67,3.05,2.47,1.2,4.78,1.12,8.9c0,.88-.09,1.85-.2,2.87a9.87,9.87,0,0,1,1.62-.88,10.44,10.44,0,0,1,4.86-1,9.51,9.51,0,0,1,4.09,1.13,10.58,10.58,0,0,1,3,2.54,10,10,0,0,1,1.83,3.24,8.53,8.53,0,0,1,3.53.49,10.23,10.23,0,0,1,3.31,1.9,8.66,8.66,0,0,1,2.32,3.31,11.2,11.2,0,0,1,.71,4.87c-.28,2.63-.59,5.7-.92,9.23s-.63,7.14-.91,10.85-.5,7.33-.64,10.85a81.14,81.14,0,0,0,.07,9.09q4.51-19.46,9.16-35.23,2-6.76,4.23-13.32t4.58-11.91a62.59,62.59,0,0,1,4.65-9q2.32-3.58,4.58-4.44a12.36,12.36,0,0,1,5.71-.84,7.64,7.64,0,0,1,4.72,2.25,12,12,0,0,1,2.89,5.71,26.38,26.38,0,0,1,.21,9.37c-.56,4.23-1.11,8.58-1.62,13s-1,8.59-1.48,12.4-.87,7-1.2,9.58c-.21,1.63-.37,2.81-.48,3.57.14-.6.39-1.42.76-2.51a67.67,67.67,0,0,1,2.68-6.48q1.76-3.81,4.23-8.25a79.89,79.89,0,0,1,5.57-8.66,59.42,59.42,0,0,1,6.76-7.76,31.42,31.42,0,0,1,7.61-5.49,14.35,14.35,0,0,1,6.41-1.69,7.09,7.09,0,0,1,5,1.83,10.26,10.26,0,0,1,2.74,5.64,28.09,28.09,0,0,1-.21,9.86c-.09.75-.28,2.12-.56,4.09s-.59,4.25-.92,6.83-.66,5.38-1,8.39-.62,5.94-.85,8.81-.4,5.54-.49,8-.1,4.53,0,6.13q4.5-11.55,8.31-20.57,1.69-3.81,3.31-7.54c.92-2.13,1.81-4.05,2.66-5.8a67.91,67.91,0,0,1,3.47-9.92,38,38,0,0,1,5.57-9.16,14,14,0,0,1,6.13-4.51,13.48,13.48,0,0,1,5.07-.7,7.27,7.27,0,0,1,4.44,1.76,10,10,0,0,1,2.89,4.93,22.66,22.66,0,0,1,.42,8.67,40.18,40.18,0,0,1-2.32,10.15,28.82,28.82,0,0,1-4.16,7.68,11.76,11.76,0,0,1-5.14,4,5,5,0,0,1-5.15-1q-2,10.43-.63,15.43c.89,3.33,2,4.91,3.17,4.72s2.7-.94,4.16-2.54a42.56,42.56,0,0,0,4.44-6,72.06,72.06,0,0,0,4.3-8q2-4.44,3.87-8.74,1.72-4,3.07-7.51c.45-5.2,1-10.53,1.72-16q1.13-8.8,2.4-17.55t2.61-16.84q1.34-8.1,2.6-15.15-8.17,2.11-14.72,4.44t-11.63,4.51q-5.07,2.19-8.81,4.09l-6.27,3.17a5.59,5.59,0,0,1-6.13-2.05,3.88,3.88,0,0,1,.07-3.73q1-2.25,5.5-5.22a53.42,53.42,0,0,1,9-4.43q5.49-2.19,11.62-4.16c4.09-1.32,8.15-2.51,12.19-3.6s7.66-1.94,10.85-2.6q1.28-6.34,2.05-10.29a40.9,40.9,0,0,1,1.05-4.65,4.93,4.93,0,0,1,3.1-3.45,8.51,8.51,0,0,1,4.58-.29,8.92,8.92,0,0,1,4,1.84c1.08.89,1.48,1.76,1.2,2.6a19.77,19.77,0,0,0-.78,3.74c-.33,2.11-.77,4.95-1.34,8.52q6.76-.56,12.76-.49t10.85.35q4.86.28,8.31.78l5.29.77a11.93,11.93,0,0,1,4.44,1.27,3.33,3.33,0,0,1,1.55,1.62,1.52,1.52,0,0,1-.28,1.41,1.4,1.4,0,0,1-1.06.64,15.82,15.82,0,0,1-2.18-.22c-1-.14-2.52-.25-4.58-.35s-4.77-.11-8.11-.07-7.49.31-12.47.78c-5.54.56-10.81,1.27-15.78,2.11q-2.4,9.59-4.65,21.92t-3.95,26q-1.69,13.67-2.47,27.9a232.55,232.55,0,0,0,.07,27.34q4.38-11.55,8.18-20.57c1.12-2.54,2.23-5.05,3.31-7.54s2.11-4.73,3.1-6.7c.25-.49.49-1,.73-1.41a67.51,67.51,0,0,1,3.57-8.1,45.57,45.57,0,0,1,4.93-7.61,14.94,14.94,0,0,1,5.64-4.58,10.44,10.44,0,0,1,4.86-1,9.51,9.51,0,0,1,4.09,1.13,10.58,10.58,0,0,1,3,2.54,10.34,10.34,0,0,1,1.83,3.24,8.48,8.48,0,0,1,3.52.49,10.13,10.13,0,0,1,3.31,1.9,8.68,8.68,0,0,1,2.33,3.31,11.21,11.21,0,0,1,.7,4.87c-.28,2.63-.59,5.7-.91,9.23s-.64,7.14-.92,10.85-.49,7.33-.63,10.85a81.14,81.14,0,0,0,.07,9.09q4.5-19.46,9.16-35.23,2-6.76,4.22-13.32t4.58-11.91a62.54,62.54,0,0,1,4.66-9c1.55-2.39,3.07-3.87,4.58-4.44a12.32,12.32,0,0,1,5.7-.84,7.59,7.59,0,0,1,4.72,2.25,11.89,11.89,0,0,1,2.89,5.71,26.59,26.59,0,0,1,.22,9.37q-.86,6.35-1.63,13t-1.48,12.4q-.71,5.71-1.19,9.58c-.21,1.63-.37,2.82-.49,3.57.15-.6.39-1.42.77-2.51a67.67,67.67,0,0,1,2.68-6.48q1.75-3.81,4.22-8.25a81.43,81.43,0,0,1,5.57-8.66,60.18,60.18,0,0,1,6.76-7.76,31.46,31.46,0,0,1,7.62-5.49,14.31,14.31,0,0,1,6.41-1.69,7.07,7.07,0,0,1,5,1.83,10.26,10.26,0,0,1,2.75,5.64,28.58,28.58,0,0,1-.21,9.86c-.1.75-.29,2.12-.57,4.09s-.58,4.25-.91,6.83-.66,5.38-1,8.39-.61,5.94-.84,8.81-.41,5.54-.5,8-.09,4.53,0,6.13q4.51-11.55,8.32-20.57c1.12-2.54,2.23-5.05,3.31-7.54.66-1.53,1.3-2.95,1.93-4.28.28-.87.58-1.74.89-2.63a70.53,70.53,0,0,1,4-9.3,46.24,46.24,0,0,1,4.94-7.61,15,15,0,0,1,5.63-4.58,9.67,9.67,0,0,1,6.42-.78,10.75,10.75,0,0,1,4.86,2.75q.55-8,1.48-16t2.11-15.29q1.2-7.33,2.75-13.6a68.06,68.06,0,0,1,3.52-10.79,12.93,12.93,0,0,1,3.67-5.21,12.53,12.53,0,0,1,4.65-2.47,10.78,10.78,0,0,1,4.51-.28,6.46,6.46,0,0,1,3.24,1.34,13.71,13.71,0,0,1,4,5.92,30.44,30.44,0,0,1,1.7,8.1,42,42,0,0,1-.36,9.3,64.6,64.6,0,0,1-2.11,9.52,32.65,32.65,0,0,1-2.61,6A40.57,40.57,0,0,1,610,291a47.76,47.76,0,0,1-3.59,4.09,17.43,17.43,0,0,1-3.18,2.6c-.18,1.79-.47,4.42-.84,7.9s-.8,7.37-1.27,11.69-.94,8.88-1.41,13.67-.87,9.33-1.2,13.6-.56,8.13-.7,11.56-.17,6-.07,7.68q4.37-11.55,8.17-20.57c1.13-2.54,2.23-5.05,3.32-7.54s2.11-4.73,3.1-6.7a46.43,46.43,0,0,1,2.74-4.86,5.71,5.71,0,0,1,1.79-2,32.89,32.89,0,0,1-.73-7.13,24.27,24.27,0,0,1,1.34-8.46,11.86,11.86,0,0,1,4.79-6,13.79,13.79,0,0,1,7.33-2.25,15.25,15.25,0,0,1,7.82,2.11,16.7,16.7,0,0,1,6.41,7,43.66,43.66,0,0,1,4.3,13.81,73.91,73.91,0,0,1,.63,16.21,21.66,21.66,0,0,0,6.84-3.24,29.77,29.77,0,0,0,4.79-4.3,28,28,0,0,0,3-3.95,13.56,13.56,0,0,1,1.62-2.32,4.8,4.8,0,0,1,2.19-.71,4.33,4.33,0,0,1,1.7.15q.76-9.9.78-20c0-109.86-70.25-203.29-168.27-237.87L488.79,96.91a3.8,3.8,0,0,1,2.12,4.92l-.77,2,1.19.47a4.57,4.57,0,0,1,2.56,5.91l-1.18,3a4.57,4.57,0,0,1-4.2,2.88c-2.28,7.62-4.88,21.9,2.18,34.68-12.58,13.94-42.43,36.58-51,43L458,147.49a5.41,5.41,0,0,0,2.48-10.43h0a5.42,5.42,0,0,0-5.33,9.31h0l-18.24,46.18h0c-1.88-10.51-8.21-47.44-7.87-66.2h0c13.88-4.51,21.74-16.72,25.27-23.84a4.58,4.58,0,0,1-1.09-5l1.19-3A4.56,4.56,0,0,1,460.28,92l1.19.46.77-2a3.8,3.8,0,0,1,4.91-2.13L479,58.42a252.8,252.8,0,0,0-61.56-7.58c-102.78,0-191.19,61.5-230.47,149.7A51,51,0,0,1,202.84,187.53Z" transform="translate(-165.24 -50.84)"/><path class="cls-6" d="M567,356.56c.18,0,.65-.7,1.41-2.11s1.71-3.24,2.89-5.5,2.44-4.79,3.8-7.61,2.75-5.66,4.16-8.52,2.72-5.62,3.94-8.25,2.26-4.84,3.1-6.62v-.57c-.56-3.56-2-4.79-4.37-3.66s-4.88,4.93-7.6,11.42a127.05,127.05,0,0,0-4.51,12.68,101,101,0,0,0-2.47,9.94,37.58,37.58,0,0,0-.78,6.48C566.56,355.79,566.7,356.56,567,356.56Z" transform="translate(-165.24 -50.84)"/><path class="cls-7" d="M258.07,356.56c.19,0,.68-.7,1.48-2.11s1.77-3.26,2.89-5.57l3.81-7.75,4.23-8.6q2.11-4.29,3.94-8.24c1.22-2.63,2.26-4.84,3.1-6.62q-.84-5.64-4.44-3.95t-7.68,11.42a132.31,132.31,0,0,0-4.51,12.68c-1.12,3.85-1.95,7.16-2.46,9.94a37.58,37.58,0,0,0-.78,6.48C257.65,355.79,257.79,356.56,258.07,356.56Z" transform="translate(-165.24 -50.84)"/><path class="cls-8" d="M666.34,333.66a30.35,30.35,0,0,1-4.65,4.86,28.39,28.39,0,0,1-6.06,3.88,25,25,0,0,1-7.61,2.18A53.19,53.19,0,0,1,643.79,360q-3.1,6.75-7.75,9.16a17.89,17.89,0,0,1-9.58,2.18,15.2,15.2,0,0,1-8.18-3,18,18,0,0,1-5.56-7.4,23.46,23.46,0,0,1-1.76-9.65h0q-2.82,7.47-4.23,12.19t-2.05,7.4c-.42,1.78-.68,3-.77,3.73s-.24,1.1-.42,1.2a11,11,0,0,1-4.09,1.41,14.11,14.11,0,0,1-5.21-.14,11.41,11.41,0,0,1-4.87-2.33,8,8,0,0,1-2.74-5.14,54.87,54.87,0,0,1-1-7.75c-.19-2.91-.31-6-.35-9.16s0-6.37,0-9.51.11-6,.21-8.67c-1.13,2.53-2.38,5.24-3.74,8.1s-2.77,5.59-4.22,8.17-2.92,4.91-4.37,7a21,21,0,0,1-4,4.51,6.23,6.23,0,0,1-4.09,1.27,8.23,8.23,0,0,1-4-1.41,10.5,10.5,0,0,1-3.24-3.59c-.13-.23-.24-.47-.35-.7q-1.11,3.18-1.84,5.63-1.41,4.71-2,7.4c-.38,1.78-.61,3-.71,3.73s-.23,1.1-.42,1.2a11,11,0,0,1-4.16,1.41,14.06,14.06,0,0,1-5.21-.14,11.33,11.33,0,0,1-4.79-2.33,8,8,0,0,1-2.75-5.14A107.08,107.08,0,0,1,533.37,343a152.15,152.15,0,0,1,3.46-25.29,37,37,0,0,0-3.24,3.45,70.16,70.16,0,0,0-5.71,7.89q-3.32,5.14-7.26,12.83A159.86,159.86,0,0,0,512.87,360a62.85,62.85,0,0,0-2.54,8.17,49.87,49.87,0,0,0-.91,5.28,17.73,17.73,0,0,0-.14,2.89c0,.57,0,.89-.07,1a7.83,7.83,0,0,1-1.34.63,20.67,20.67,0,0,1-2.89.92,11.47,11.47,0,0,1-3.59.28,6.51,6.51,0,0,1-3.6-1.48,9.76,9.76,0,0,1-2.82-4.16,21.48,21.48,0,0,1-1.13-7.75q0-4.79.57-11.2t1.41-13.39q.84-7,1.83-13.88t1.76-12.75q.78-5.85,1.2-9.94a22.44,22.44,0,0,0,.14-5.5,21.74,21.74,0,0,0-1.55,4q-1.12,3.45-2.61,8.88t-3.31,12.19q-1.83,6.77-3.66,13.74T486,351.56q-1.83,6.69-3.31,12c-1,3.52-1.83,6.39-2.54,8.6s-1.19,3.4-1.48,3.59a10.84,10.84,0,0,1-4.08,1.41,14.16,14.16,0,0,1-5.22-.14,11.42,11.42,0,0,1-4.86-2.33,8,8,0,0,1-2.75-5.14,93,93,0,0,1-1.62-16.77q-.07-8.75.64-16.49-1.69,3.66-3.67,7.68t-4,7.68a66.08,66.08,0,0,1-4.09,6.48,19.29,19.29,0,0,1-3.74,4.09,6.31,6.31,0,0,1-4.15,1.27,8.33,8.33,0,0,1-4.09-1.41,10.5,10.5,0,0,1-3.24-3.59,10.27,10.27,0,0,1-.59-1.2q-1.23,3.5-2,6.13-1.41,4.71-2,7.4c-.42,1.78-.68,3-.78,3.73s-.23,1.1-.42,1.2a9.77,9.77,0,0,1-2.53,1.06,12.37,12.37,0,0,1-3.74.42,14.14,14.14,0,0,1-4.23-.85,10,10,0,0,1-4-2.74,16.77,16.77,0,0,1-3.17-5.43,28.45,28.45,0,0,1-1.62-8.81c-.2-2.73-.27-5.73-.24-8.95-1.07,2-2.16,3.9-3.29,5.71a43.43,43.43,0,0,1-6.06,7.75,16.67,16.67,0,0,1-7,4.37,14.61,14.61,0,0,1-8.46.28,11.86,11.86,0,0,1-5.85-4.09,18.74,18.74,0,0,1-3.38-7.18,27.74,27.74,0,0,1-.55-2.86c-1.3,3.54-2.32,6.55-3,9q-1.41,4.71-2,7.4c-.37,1.78-.61,3-.7,3.73s-.24,1.1-.42,1.2a11,11,0,0,1-4.16,1.41,14.11,14.11,0,0,1-5.22-.14,11.39,11.39,0,0,1-4.79-2.33,8,8,0,0,1-2.75-5.14A107.06,107.06,0,0,1,348.48,343a151.09,151.09,0,0,1,3.45-25.29,40.07,40.07,0,0,0-3.24,3.45A70.16,70.16,0,0,0,343,329q-3.3,5.14-7.25,12.83A158,158,0,0,0,328,360a62.57,62.57,0,0,0-2.53,8.17,50.31,50.31,0,0,0-.92,5.28,17.73,17.73,0,0,0-.14,2.89c.05.57,0,.89-.07,1a7.41,7.41,0,0,1-1.34.63,20.67,20.67,0,0,1-2.89.92,11.42,11.42,0,0,1-3.59.28,6.45,6.45,0,0,1-3.59-1.48,9.76,9.76,0,0,1-2.82-4.16,21.26,21.26,0,0,1-1.13-7.75q0-4.79.56-11.2t1.41-13.39q.85-7,1.83-13.88t1.77-12.75q.76-5.85,1.19-9.94a22.61,22.61,0,0,0,.15-5.5,21.42,21.42,0,0,0-1.56,4q-1.12,3.45-2.6,8.88t-3.31,12.19q-1.84,6.77-3.67,13.74t-3.66,13.67q-1.83,6.69-3.31,12t-2.54,8.6c-.71,2.2-1.2,3.4-1.48,3.59a11,11,0,0,1-4.09,1.41,14.11,14.11,0,0,1-5.21-.14,11.31,11.31,0,0,1-4.86-2.33,8,8,0,0,1-2.75-5.14,91.19,91.19,0,0,1-1.62-16.77q-.07-8.75.63-16.49-1.69,3.66-3.66,7.68t-4,7.68a64.25,64.25,0,0,1-4.09,6.48,19.29,19.29,0,0,1-3.73,4.09,6.33,6.33,0,0,1-4.16,1.27,8.27,8.27,0,0,1-4.08-1.41,10.63,10.63,0,0,1-3.25-3.59,11.2,11.2,0,0,1-.54-1.1,91.48,91.48,0,0,1-5.13,8.49A52.13,52.13,0,0,1,227.4,381q-9.35,5.75-22.42,4.62-20.25-1.56-31-16.77c28.94,107.37,127,186.39,243.49,186.39,129.69,0,236.49-97.9,250.59-223.82C667.48,332.13,666.93,332.89,666.34,333.66Z" transform="translate(-165.24 -50.84)"/><path class="cls-9" d="M443,356.56c.19,0,.68-.7,1.48-2.11s1.76-3.26,2.89-5.57l3.8-7.75,4.23-8.6q2.11-4.29,3.95-8.24t3.1-6.62q-.85-5.64-4.44-3.95t-7.68,11.42a132.31,132.31,0,0,0-4.51,12.68q-1.69,5.78-2.47,9.94a37.37,37.37,0,0,0-.77,6.48C442.55,355.79,442.69,356.56,443,356.56Z" transform="translate(-165.24 -50.84)"/><path class="cls-10" d="M394.35,332.18a22.12,22.12,0,0,0,2.12-4.86q.84-2.74,1.26-4.86,1.27-7.05.64-8.32c-.42-.84-1.18-.37-2.26,1.41a55.92,55.92,0,0,0-3.73,8.11,112.09,112.09,0,0,0-3.81,11.76,2.3,2.3,0,0,0,3,0A11.16,11.16,0,0,0,394.35,332.18Z" transform="translate(-165.24 -50.84)"/><text class="cls-11" transform="translate(132.57 377.97)">Arte Digital</text><path class="cls-1" d="M550.51,142.75A93.53,93.53,0,1,1,371.25,89.27l1.46.44a92,92,0,0,0,176.34,52.6Z" transform="translate(-165.24 -50.84)"/><rect class="cls-1" x="433.59" y="112.14" width="1.53" height="185.54" transform="translate(-51.42 511.72) rotate(-73.39)"/><rect class="cls-1" x="427.43" y="197.98" width="13.86" height="13.86" transform="translate(-51.42 511.72) rotate(-73.39)"/><path class="cls-1" d="M443.94,199.73l-4.41,14.76-14.75-4.4,4.4-14.76Zm-5.44,12.85L442,200.76l-11.82-3.52-3.52,11.82Z" transform="translate(-165.24 -50.84)"/><rect class="cls-1" x="542.85" y="135.6" width="13.86" height="13.86" transform="translate(90.78 577.78) rotate(-73.39)"/><path class="cls-1" d="M559.36,137.36,555,152.11l-14.76-4.4L544.6,133Zm-5.43,12.84,3.52-11.81-11.82-3.53-3.52,11.82Z" transform="translate(-165.24 -50.84)"/><rect class="cls-1" x="364.66" y="82.44" width="13.86" height="13.86" transform="matrix(0.29, -0.96, 0.96, 0.29, 14.47, 369.07)"/><path class="cls-1" d="M381.17,84.2,376.77,99,362,94.55l4.4-14.75ZM375.74,97l3.53-11.81L367.45,81.7l-3.53,11.82Z" transform="translate(-165.24 -50.84)"/><circle class="cls-1" cx="345.07" cy="178.27" r="6.93" transform="translate(-208.51 134.67) rotate(-28.39)"/><path class="cls-1" d="M351.84,174.61a7.63,7.63,0,0,1,.61,5.86,7.7,7.7,0,0,1-14.15,1.46,7.63,7.63,0,0,1-.6-5.86h0a7.7,7.7,0,0,1,14.14-1.46Zm-12.19,6.59a6.11,6.11,0,0,0,3.66,3,6.17,6.17,0,1,0-1.17-11.33,6.11,6.11,0,0,0-3,3.66h0A6.08,6.08,0,0,0,339.65,181.2Z" transform="translate(-165.24 -50.84)"/><circle class="cls-1" cx="358.01" cy="180.59" r="6.93"/><path class="cls-1" d="M530,227.77a7.7,7.7,0,1,1-14.15,1.46h0A7.7,7.7,0,0,1,530,227.77Zm-12.19,6.59a6.16,6.16,0,1,0-.49-4.69A6.16,6.16,0,0,0,517.84,234.36Z" transform="translate(-165.24 -50.84)"/></svg>